<svg xmlns="http://www.w3.org/2000/svg" width="1408.859" height="55.48" viewBox="0 0 1408.859 55.48">
  <g id="img-roadmap" transform="translate(-262.07 -2750.76)">
    <path id="partner" d="M-136.564,25.606H-148.94L-169.916,11.62a1.434,1.434,0,0,0-.79-.239h-11.9L-196.861.3a1.419,1.419,0,0,0-.873-.3H-1542.577A1.423,1.423,0,0,0-1544,1.423V21.339a1.423,1.423,0,0,0,1.423,1.423H-212.691l2.662,3.713a4.222,4.222,0,0,0-.508,1.978v1.423a4.267,4.267,0,0,0,3.158,4.1,4.234,4.234,0,0,0-.313,1.588v1.423a4.267,4.267,0,0,0,3.158,4.1,4.234,4.234,0,0,0-.313,1.588V44.1a4.267,4.267,0,0,0,3.158,4.1A4.234,4.234,0,0,0-202,49.79v1.423a4.268,4.268,0,0,0,4.268,4.268h3.556a4.979,4.979,0,0,0,4.6-3.1,7.038,7.038,0,0,0,1.882.256h25.521a5.991,5.991,0,0,0,5.716-4.268h19.89a1.423,1.423,0,0,0,1.423-1.423V27.029A1.423,1.423,0,0,0-136.564,25.606Zm-71.129,2.845a1.423,1.423,0,0,1,1.423-1.423h3.556a2.134,2.134,0,0,1,2.134,2.134,2.134,2.134,0,0,1-2.134,2.134h-3.556a1.423,1.423,0,0,1-1.423-1.423Zm2.845,7.113a1.423,1.423,0,0,1,1.423-1.423h3.556a2.134,2.134,0,0,1,2.134,2.134,2.134,2.134,0,0,1-2.134,2.134h-3.556a1.423,1.423,0,0,1-1.423-1.423ZM-202,42.677a1.423,1.423,0,0,1,1.423-1.423h3.556a2.134,2.134,0,0,1,2.134,2.134,2.134,2.134,0,0,1-2.134,2.134h-3.556A1.423,1.423,0,0,1-202,44.1Zm7.824,9.958h-3.556a1.423,1.423,0,0,1-1.423-1.423V49.79a1.423,1.423,0,0,1,1.423-1.423h3.556a2.134,2.134,0,0,1,2.134,2.134A2.134,2.134,0,0,1-194.178,52.635Zm32.008-2.845h-2.084l-5.264-7.9-2.367,1.58,4.212,6.323h-5.121l-5.264-7.9-2.367,1.58,4.216,6.323h-5.121l-5.264-7.9-2.367,1.58,4.216,6.323h-2.947a4.112,4.112,0,0,1-1.634-.372,4.98,4.98,0,0,0-3.356-3.641,4.907,4.907,0,0,0,.288-4.241,4.9,4.9,0,0,0-3.133-2.872,4.907,4.907,0,0,0,.288-4.241,4.9,4.9,0,0,0-3.133-2.872,4.924,4.924,0,0,0,.638-2.389,4.979,4.979,0,0,0-4.979-4.979h-3.556a4.246,4.246,0,0,0-1.66.336l-2.875-4.01a1.423,1.423,0,0,0-1.155-.593H-1541.155V2.845H-198.222l11.078,8.613a5.652,5.652,0,0,0-4.9,5.613,5.691,5.691,0,0,0,5.69,5.69h13.388l13.783,24.812A3.146,3.146,0,0,1-162.17,49.79Zm24.184-4.268h-19.08l-3.952-7.113h7.383V35.564H-162.6l-8.294-14.927a1.424,1.424,0,0,0-1.238-.721h-14.226a2.845,2.845,0,0,1-2.845-2.845,2.845,2.845,0,0,1,2.845-2.845h15.222l20.98,13.987a1.429,1.429,0,0,0,.785.239h11.381Zm0,0" transform="translate(1806.07 2750.76)" fill="#0e65f3"/>
    <rect id="Rectangle_250" data-name="Rectangle 250" width="21" height="21" transform="translate(263 2752)" fill="#0e65f3"/>
    <rect id="Rectangle_251" data-name="Rectangle 251" width="11" height="3" transform="translate(602 2773) rotate(-90)" fill="#0e65f3"/>
    <rect id="Rectangle_252" data-name="Rectangle 252" width="11" height="3" transform="translate(935 2773) rotate(-90)" fill="#0e65f3"/>
    <rect id="Rectangle_253" data-name="Rectangle 253" width="11" height="3" transform="translate(1271 2773) rotate(-90)" fill="#0e65f3"/>
  </g>
</svg>
