<svg id="logo" xmlns="http://www.w3.org/2000/svg" width="218.883" height="38.627" viewBox="0 0 218.883 38.627">
  <g id="Group_363" data-name="Group 363" transform="translate(70.815 6.438)">
    <path id="Path_251" data-name="Path 251" d="M4727.053,3295.084a6.321,6.321,0,0,1,5.167,6.531c0,4.124-2.726,7.115-8.353,7.115h-10.655v-25.751h9.292c5.469,0,8.407,2.194,8.407,6.283a5.873,5.873,0,0,1-3.858,5.752v.071Zm-8.832-1.557h3.646c2.035,0,3.876-.92,3.876-3.044,0-1.788-1.239-3.009-4.212-2.991h-3.31Zm4.106,10.725c2.726-.018,4.583-1.08,4.583-3.274,0-2.018-1.5-3.345-4.531-3.345h-4.159v6.619h4.106Z" transform="translate(-4713.213 -3282.978)"/>
    <path id="Path_252" data-name="Path 252" d="M4820.7,3282.978h4.744v25.751H4820.7Z" transform="translate(-4799.072 -3282.978)"/>
    <path id="Path_253" data-name="Path 253" d="M4867.827,3338.313c-5.628,0-9.416-3.858-9.416-9.132,0-5.292,3.787-9.167,9.416-9.167,5.5,0,9.416,3.734,9.416,9.167,0,5.416-3.911,9.133-9.416,9.133Zm0-4.247a4.9,4.9,0,1,0-4.619-4.885,4.631,4.631,0,0,0,4.619,4.885Z" transform="translate(-4829.2 -3312.563)"/>
    <path id="Path_254" data-name="Path 254" d="M4974.431,3338.313c-5.628,0-9.416-3.858-9.416-9.132,0-5.292,3.787-9.167,9.416-9.167,5.5,0,9.416,3.734,9.416,9.167,0,5.416-3.911,9.133-9.416,9.133Zm0-4.247a4.9,4.9,0,1,0-4.619-4.885,4.631,4.631,0,0,0,4.619,4.885Z" transform="translate(-4914.358 -3312.563)"/>
    <path id="Path_255" data-name="Path 255" d="M5093.177,3321.42c3.84,0,6.247,2.318,6.247,7.716v10.3h-4.743v-9.15c0-2.831-.867-4.6-3.1-4.6-2,0-3.611,1.717-3.611,4.885v8.867h-4.743v-9.15c0-2.832-.92-4.6-3.132-4.6-2.124,0-3.735,1.716-3.735,4.884v8.849h-4.743v-17.7h4.743v2.336h.054a6.842,6.842,0,0,1,5.292-2.637,5.557,5.557,0,0,1,5.256,2.85h.054a7.573,7.573,0,0,1,6.159-2.85Z" transform="translate(-4999.515 -3313.686)"/>
    <path id="Path_256" data-name="Path 256" d="M5196.807,3287.544h-7.1v-4.566h19.31v4.566h-7.133v21.185h-5.08Z" transform="translate(-5093.849 -3282.978)"/>
    <path id="Path_257" data-name="Path 257" d="M5282.748,3329.006a9.032,9.032,0,0,1-.124,1.7h-12.407a4.458,4.458,0,0,0,4.513,3.4,5.242,5.242,0,0,0,4.23-2l3.079,2.867a9.42,9.42,0,0,1-7.646,3.345,8.777,8.777,0,0,1-9.115-9.167c0-5.38,3.752-9.132,8.778-9.132,5.2,0,8.69,3.805,8.69,8.991Zm-12.513-1.717h7.805a3.754,3.754,0,0,0-3.823-3.1A3.9,3.9,0,0,0,5270.235,3327.289Z" transform="translate(-5154.215 -3312.564)"/>
    <path id="Path_258" data-name="Path 258" d="M5374.207,3338.312a8.754,8.754,0,0,1-9.1-9.133c0-5.433,3.84-9.168,9.327-9.168a9.653,9.653,0,0,1,7.521,3.4l-3.2,2.761a5.291,5.291,0,0,0-4.124-1.894,4.548,4.548,0,0,0-4.708,4.867,4.6,4.6,0,0,0,4.743,4.9,5.431,5.431,0,0,0,4.106-1.788l3.257,2.867a10.228,10.228,0,0,1-7.823,3.185Z" transform="translate(-5233.962 -3312.562)"/>
  </g>
  <g id="Group_364" data-name="Group 364">
    <path id="Path_259" data-name="Path 259" d="M4457.4,3250.978v19.313h-12.875v6.438H4431.65V3289.6h-6.437v-19.313h12.875v-6.438h12.875v-12.876Z" transform="translate(-4412.337 -3250.978)" fill="#0e65f3"/>
    <path id="Path_260" data-name="Path 260" d="M4470.277,3327.854h0a12.876,12.876,0,0,1-12.876,12.875h-32.188v-6.438H4457.4a6.438,6.438,0,0,0,6.438-6.438h0a6.438,6.438,0,0,0-6.438-6.438h0v-6.438h0A12.876,12.876,0,0,1,4470.277,3327.854Z" transform="translate(-4412.337 -3302.103)" fill="#0e65f3"/>
    <path id="Path_261" data-name="Path 261" d="M4444.526,3250.978v6.438H4431.65v6.438h-6.437v-12.876Z" transform="translate(-4412.337 -3250.978)" fill="#0e65f3"/>
    <rect id="Rectangle_255" data-name="Rectangle 255" width="6" height="6" fill="#0e65f3"/>
  </g>
</svg>
